<?xml version="1.0" standalone="no"?>
<!DOCTYPE svg PUBLIC "-//W3C//DTD SVG 1.1//EN"
"http://www.w3.org/Graphics/SVG/1.1/DTD/svg11.dtd">

<svg width="544" height="144" view_box="0 0 544 144"
xmlns="http://www.w3.org/2000/svg"
xmlns:link="http://www.w3.org/1999/xlink">\n\n<desc>Généré par Mocodo 2.3.7 le Sat, 20 Aug 2022 06:35:06</desc>

<rect id="frame" x="0" y="0" width="544" height="144" fill="#f7f7f7" stroke="none" stroke-width="0"/>

<!-- Association WORK -->
<line x1="55" y1="72" x2="166" y2="72" stroke="#8073ac" stroke-width="1.5"/>
<text x="107" y="89.0" fill="#b35806" font-family="Arial" font-size="12">0,n</text>
<line x1="279" y1="72" x2="166" y2="72" stroke="#8073ac" stroke-width="1.5"/>
<text x="207" y="89.0" fill="#b35806" font-family="Arial" font-size="12">1,1</text>
<g id="association-WORK">
	<path d="M 184 44 a 14 14 90 0 1 14 14 V 71 h -64 V 58 a 14 14 90 0 1 14 -14" fill="#b2abd2" stroke="#b2abd2" stroke-width="0"/>
	<path d="M 198 71.0 v 15 a 14 14 90 0 1 -14 14 H 148 a 14 14 90 0 1 -14 -14 V 71.0 H 64" fill="#d8daeb" stroke="#d8daeb" stroke-width="0"/>
	<rect x="134" y="44" width="64" height="56" fill="none" rx="14" stroke="#8073ac" stroke-width="3"/>
	<line x1="134" y1="71" x2="198" y2="71" stroke="#8073ac" stroke-width="1.5"/>
	<text x="143" y="64.3" fill="#000000" font-family="Arial Black" font-size="13">WORK</text>
</g>

<!-- Association HAVE -->
<line x1="279" y1="72" x2="390" y2="72" stroke="#8073ac" stroke-width="1.5"/>
<text x="333" y="89.0" fill="#b35806" font-family="Arial" font-size="12">0,n</text>
<line x1="494" y1="72" x2="390" y2="72" stroke="#8073ac" stroke-width="1.5"/>
<text x="429" y="89.0" fill="#b35806" font-family="Arial" font-size="12">1,1</text>
<g id="association-HAVE">
	<path d="M 406 44 a 14 14 90 0 1 14 14 V 71 h -60 V 58 a 14 14 90 0 1 14 -14" fill="#b2abd2" stroke="#b2abd2" stroke-width="0"/>
	<path d="M 420 71.0 v 15 a 14 14 90 0 1 -14 14 H 374 a 14 14 90 0 1 -14 -14 V 71.0 H 60" fill="#d8daeb" stroke="#d8daeb" stroke-width="0"/>
	<rect x="360" y="44" width="60" height="56" fill="none" rx="14" stroke="#8073ac" stroke-width="3"/>
	<line x1="360" y1="71" x2="420" y2="71" stroke="#8073ac" stroke-width="1.5"/>
	<text x="369" y="64.3" fill="#000000" font-family="Arial Black" font-size="13">HAVE</text>
</g>

<!-- Entity EMPLOYEE -->
<g id="entity-EMPLOYEE">
	<g id="frame-EMPLOYEE">
		<rect x="231" y="27" width="96" height="28" fill="#fdb863" stroke="#fdb863" stroke-width="0"/>
		<rect x="231" y="55.0" width="96" height="62" fill="#fee0b6" stroke="#fee0b6" stroke-width="0"/>
		<rect x="231" y="27" width="96" height="90" fill="none" stroke="#e08214" stroke-width="3"/>
		<line x1="231" y1="55" x2="327" y2="55" stroke="#e08214" stroke-width="1.5"/>
	</g>
	<text x="239" y="47.3" fill="#000000" font-family="Arial Black" font-size="13">EMPLOYEE</text>
	<text x="239" y="71.2" fill="#000000" font-family="Arial" font-size="14">em_id</text>
	<line x1="239" y1="74" x2="280" y2="74" stroke="#000000" stroke-width="1.2"/>
	<text x="239" y="89.2" fill="#000000" font-family="Arial" font-size="14">firstname</text>
	<text x="239" y="107.2" fill="#000000" font-family="Arial" font-size="14">lastname</text>
</g>

<!-- Entity COMPANY -->
<g id="entity-COMPANY">
	<g id="frame-COMPANY">
		<rect x="9" y="27" width="92" height="28" fill="#fdb863" stroke="#fdb863" stroke-width="0"/>
		<rect x="9" y="55.0" width="92" height="62" fill="#fee0b6" stroke="#fee0b6" stroke-width="0"/>
		<rect x="9" y="27" width="92" height="90" fill="none" stroke="#e08214" stroke-width="3"/>
		<line x1="9" y1="55" x2="101" y2="55" stroke="#e08214" stroke-width="1.5"/>
	</g>
	<text x="17" y="47.3" fill="#000000" font-family="Arial Black" font-size="13">COMPANY</text>
	<text x="17" y="71.2" fill="#000000" font-family="Arial" font-size="14">co_id</text>
	<line x1="17" y1="74" x2="53" y2="74" stroke="#000000" stroke-width="1.2"/>
	<text x="17" y="89.2" fill="#000000" font-family="Arial" font-size="14">name</text>
	<text x="17" y="107.2" fill="#000000" font-family="Arial" font-size="14">balance</text>
</g>

<!-- Entity DEPOSIT -->
<g id="entity-DEPOSIT">
	<g id="frame-DEPOSIT">
		<rect x="453" y="9" width="82" height="28" fill="#fdb863" stroke="#fdb863" stroke-width="0"/>
		<rect x="453" y="37.0" width="82" height="98" fill="#fee0b6" stroke="#fee0b6" stroke-width="0"/>
		<rect x="453" y="9" width="82" height="126" fill="none" stroke="#e08214" stroke-width="3"/>
		<line x1="453" y1="37" x2="535" y2="37" stroke="#e08214" stroke-width="1.5"/>
	</g>
	<text x="461" y="29.3" fill="#000000" font-family="Arial Black" font-size="13">DEPOSIT</text>
	<text x="461" y="53.2" fill="#000000" font-family="Arial" font-size="14">de_id</text>
	<line x1="461" y1="56" x2="498" y2="56" stroke="#000000" stroke-width="1.2"/>
	<text x="461" y="71.2" fill="#000000" font-family="Arial" font-size="14">amount</text>
	<text x="461" y="89.2" fill="#000000" font-family="Arial" font-size="14">date</text>
	<text x="461" y="107.2" fill="#000000" font-family="Arial" font-size="14">expire</text>
	<text x="461" y="125.2" fill="#000000" font-family="Arial" font-size="14">type</text>
</g>
</svg>